<mxfile host="app.diagrams.net" modified="2024-02-18T18:22:35.088Z" agent="Mozilla/5.0 (X11; Linux x86_64) AppleWebKit/537.36 (KHTML, like Gecko) Chrome/121.0.0.0 Safari/537.36" etag="FsKnJ-fMfsUFUznzr8z7" version="23.1.1" type="device">
  <diagram name="Page-1" id="N-dxkLATL1s5YLNjd3rz">
    <mxGraphModel dx="2284" dy="793" grid="1" gridSize="10" guides="1" tooltips="1" connect="1" arrows="1" fold="1" page="1" pageScale="1" pageWidth="850" pageHeight="1100" math="0" shadow="0">
      <root>
        <mxCell id="0" />
        <mxCell id="1" parent="0" />
        <mxCell id="9vOYLWqsDCrpXDm0kUNr-23" style="edgeStyle=orthogonalEdgeStyle;rounded=1;orthogonalLoop=1;jettySize=auto;html=1;" edge="1" parent="1">
          <mxGeometry relative="1" as="geometry">
            <mxPoint x="290" y="800" as="targetPoint" />
            <mxPoint x="390" y="690" as="sourcePoint" />
            <Array as="points">
              <mxPoint x="360" y="690" />
              <mxPoint x="360" y="800" />
            </Array>
          </mxGeometry>
        </mxCell>
        <mxCell id="9vOYLWqsDCrpXDm0kUNr-1" value="&lt;h3&gt;Scraping Approach&lt;/h3&gt;" style="shadow=0;dashed=0;html=1;strokeColor=none;fillColor=#4495D1;labelPosition=center;verticalLabelPosition=bottom;verticalAlign=top;align=center;outlineConnect=0;shape=mxgraph.veeam.script;whiteSpace=wrap;rounded=1;" vertex="1" parent="1">
          <mxGeometry x="198.98000000000002" y="760" width="80" height="80" as="geometry" />
        </mxCell>
        <mxCell id="9vOYLWqsDCrpXDm0kUNr-22" style="edgeStyle=orthogonalEdgeStyle;rounded=1;orthogonalLoop=1;jettySize=auto;html=1;entryX=1;entryY=0.5;entryDx=0;entryDy=0;" edge="1" parent="1" target="9vOYLWqsDCrpXDm0kUNr-2">
          <mxGeometry relative="1" as="geometry">
            <mxPoint x="390" y="660" as="sourcePoint" />
            <Array as="points">
              <mxPoint x="360" y="660" />
              <mxPoint x="360" y="560" />
            </Array>
          </mxGeometry>
        </mxCell>
        <mxCell id="9vOYLWqsDCrpXDm0kUNr-2" value="&lt;h3&gt;Screenshot Approach&lt;/h3&gt;" style="shape=image;html=1;verticalAlign=top;verticalLabelPosition=bottom;labelBackgroundColor=none;imageAspect=0;aspect=fixed;image=https://cdn1.iconfinder.com/data/icons/ios-11-glyphs/30/screenshot-128.png;spacing=2;whiteSpace=wrap;rounded=1;" vertex="1" parent="1">
          <mxGeometry x="188.98000000000002" y="510" width="100" height="100" as="geometry" />
        </mxCell>
        <mxCell id="9vOYLWqsDCrpXDm0kUNr-17" style="edgeStyle=orthogonalEdgeStyle;rounded=1;orthogonalLoop=1;jettySize=auto;html=1;" edge="1" parent="1" source="9vOYLWqsDCrpXDm0kUNr-2">
          <mxGeometry relative="1" as="geometry">
            <mxPoint x="80" y="678" as="targetPoint" />
            <Array as="points">
              <mxPoint x="160" y="560" />
              <mxPoint x="160" y="678" />
            </Array>
          </mxGeometry>
        </mxCell>
        <mxCell id="9vOYLWqsDCrpXDm0kUNr-3" value="&lt;h3&gt;General&amp;nbsp;&lt;span style=&quot;background-color: initial;&quot;&gt;Report&lt;/span&gt;&lt;/h3&gt;" style="shadow=0;dashed=0;html=1;strokeColor=none;fillColor=#4495D1;labelPosition=center;verticalLabelPosition=bottom;verticalAlign=top;align=center;outlineConnect=0;shape=mxgraph.veeam.2d.report;whiteSpace=wrap;rounded=1;" vertex="1" parent="1">
          <mxGeometry x="10" y="640" width="57.96" height="80" as="geometry" />
        </mxCell>
        <mxCell id="9vOYLWqsDCrpXDm0kUNr-4" value="&lt;h3&gt;Dashboard&lt;/h3&gt;" style="verticalLabelPosition=bottom;aspect=fixed;html=1;verticalAlign=top;strokeColor=none;align=center;outlineConnect=0;shape=mxgraph.citrix.reporting;rounded=1;" vertex="1" parent="1">
          <mxGeometry x="410.25" y="880" width="61.5" height="69" as="geometry" />
        </mxCell>
        <mxCell id="9vOYLWqsDCrpXDm0kUNr-21" style="edgeStyle=orthogonalEdgeStyle;rounded=1;orthogonalLoop=1;jettySize=auto;html=1;" edge="1" parent="1">
          <mxGeometry relative="1" as="geometry">
            <mxPoint x="440" y="560" as="sourcePoint" />
            <mxPoint x="440" y="630" as="targetPoint" />
          </mxGeometry>
        </mxCell>
        <mxCell id="9vOYLWqsDCrpXDm0kUNr-24" style="edgeStyle=orthogonalEdgeStyle;rounded=1;orthogonalLoop=1;jettySize=auto;html=1;curved=0;" edge="1" parent="1">
          <mxGeometry relative="1" as="geometry">
            <mxPoint x="441" y="771" as="sourcePoint" />
            <mxPoint x="441.0833333333335" y="871" as="targetPoint" />
          </mxGeometry>
        </mxCell>
        <mxCell id="9vOYLWqsDCrpXDm0kUNr-10" value="&lt;h3&gt;Database&lt;/h3&gt;" style="outlineConnect=0;fontColor=#000000;gradientColor=none;fillColor=#000000;strokeColor=none;dashed=0;verticalLabelPosition=bottom;verticalAlign=top;align=center;html=1;fontSize=12;fontStyle=0;aspect=fixed;pointerEvents=1;shape=mxgraph.aws4.rds_postgresql_instance;rounded=1;" vertex="1" parent="1">
          <mxGeometry x="402" y="642" width="78" height="78" as="geometry" />
        </mxCell>
        <mxCell id="9vOYLWqsDCrpXDm0kUNr-25" style="edgeStyle=orthogonalEdgeStyle;rounded=0;orthogonalLoop=1;jettySize=auto;html=1;" edge="1" parent="1">
          <mxGeometry relative="1" as="geometry">
            <mxPoint x="490" y="459.66" as="targetPoint" />
            <mxPoint x="620" y="459.66" as="sourcePoint" />
          </mxGeometry>
        </mxCell>
        <mxCell id="9vOYLWqsDCrpXDm0kUNr-11" value="&lt;h3&gt;&lt;font color=&quot;#000000&quot;&gt;User&lt;/font&gt;&lt;/h3&gt;" style="fontColor=#0066CC;verticalAlign=top;verticalLabelPosition=bottom;labelPosition=center;align=center;html=1;outlineConnect=0;fillColor=#CCCCCC;strokeColor=#6881B3;gradientColor=none;gradientDirection=north;strokeWidth=2;shape=mxgraph.networks.user_male;rounded=1;" vertex="1" parent="1">
          <mxGeometry x="640" y="420" width="32" height="80" as="geometry" />
        </mxCell>
        <mxCell id="9vOYLWqsDCrpXDm0kUNr-15" style="edgeStyle=orthogonalEdgeStyle;rounded=1;orthogonalLoop=1;jettySize=auto;html=1;" edge="1" parent="1">
          <mxGeometry relative="1" as="geometry">
            <mxPoint x="190" y="800" as="sourcePoint" />
            <mxPoint x="80" y="700" as="targetPoint" />
            <Array as="points">
              <mxPoint x="160" y="800" />
              <mxPoint x="160" y="700" />
            </Array>
          </mxGeometry>
        </mxCell>
        <mxCell id="9vOYLWqsDCrpXDm0kUNr-8" value="&lt;h3&gt;&lt;font&gt;Campaign Registration&lt;/font&gt;&lt;/h3&gt;" style="outlineConnect=0;fontColor=#000000;gradientColor=none;fillColor=#000000;strokeColor=none;dashed=0;verticalLabelPosition=bottom;verticalAlign=top;align=center;html=1;fontSize=12;fontStyle=0;aspect=fixed;pointerEvents=1;shape=mxgraph.aws4.rds_optimized_writes;whiteSpace=wrap;rounded=1;" vertex="1" parent="1">
          <mxGeometry x="402" y="420" width="78" height="78" as="geometry" />
        </mxCell>
        <mxCell id="9vOYLWqsDCrpXDm0kUNr-30" value="" style="whiteSpace=wrap;html=1;fillColor=none;strokeWidth=2;" vertex="1" parent="1">
          <mxGeometry x="-80" y="320" width="840" height="720" as="geometry" />
        </mxCell>
        <mxCell id="9vOYLWqsDCrpXDm0kUNr-32" value="" style="shape=image;verticalLabelPosition=bottom;labelBackgroundColor=default;verticalAlign=top;aspect=fixed;imageAspect=0;image=data:image/png,iVBORw0KGgoAAAANSUhEUgAAAfQAAAH0CAYAAADL1t+KAAAACXBIWXMAAA7EAAAOxAGVKw4bAAAAO3RFWHRDb21tZW50AHhyOmQ6REFGOElFUmR3ZkE6MyxqOjE4MDA3MzMwNDY5MzEyMTk4NjEsdDoyNDAyMTgxOAywWukAAAURaVRYdFhNTDpjb20uYWRvYmUueG1wAAAAAAA8eDp4bXBtZXRhIHhtbG5zOng9J2Fkb2JlOm5zOm1ldGEvJz4KICAgICAgICA8cmRmOlJERiB4bWxuczpyZGY9J2h0dHA6Ly93d3cudzMub3JnLzE5OTkvMDIvMjItcmRmLXN5bnRheC1ucyMnPgoKICAgICAgICA8cmRmOkRlc2NyaXB0aW9uIHJkZjphYm91dD0nJwogICAgICAgIHhtbG5zOmRjPSdodHRwOi8vcHVybC5vcmcvZGMvZWxlbWVudHMvMS4xLyc+CiAgICAgICAgPGRjOnRpdGxlPgogICAgICAgIDxyZGY6QWx0PgogICAgICAgIDxyZGY6bGkgeG1sOmxhbmc9J3gtZGVmYXVsdCc+Qmx1ZSBhbmQgV2hpdGUgQ2xhc3NpYyBTaGllbGQgRmluYW5jaWFsIHdpdGggU3RhciBMb2dvIERlc2lnbiAtIDE8L3JkZjpsaT4KICAgICAgICA8L3JkZjpBbHQ+CiAgICAgICAgPC9kYzp0aXRsZT4KICAgICAgICA8L3JkZjpEZXNjcmlwdGlvbj4KCiAgICAgICAgPHJkZjpEZXNjcmlwdGlvbiByZGY6YWJvdXQ9JycKICAgICAgICB4bWxuczpBdHRyaWI9J2h0dHA6Ly9ucy5hdHRyaWJ1dGlvbi5jb20vYWRzLzEuMC8nPgogICAgICAgIDxBdHRyaWI6QWRzPgogICAgICAgIDxyZGY6U2VxPgogICAgICAgIDxyZGY6bGkgcmRmOnBhcnNlVHlwZT0nUmVzb3VyY2UnPgogICAgICAgIDxBdHRyaWI6Q3JlYXRlZD4yMDI0LTAyLTE4PC9BdHRyaWI6Q3JlYXRlZD4KICAgICAgICA8QXR0cmliOkV4dElkPjkwNGVkNzRiLThmMWQtNDJkNy05YmJhLTRhODJjMzNhMTg4YjwvQXR0cmliOkV4dElkPgogICAgICAgIDxBdHRyaWI6RmJJZD41MjUyNjU5MTQxNzk1ODA8L0F0dHJpYjpGYklkPgogICAgICAgIDxBdHRyaWI6VG91Y2hUeXBlPjI8L0F0dHJpYjpUb3VjaFR5cGU+CiAgICAgICAgPC9yZGY6bGk+CiAgICAgICAgPC9yZGY6U2VxPgogICAgICAgIDwvQXR0cmliOkFkcz4KICAgICAgICA8L3JkZjpEZXNjcmlwdGlvbj4KCiAgICAgICAgPHJkZjpEZXNjcmlwdGlvbiByZGY6YWJvdXQ9JycKICAgICAgICB4bWxuczpwZGY9J2h0dHA6Ly9ucy5hZG9iZS5jb20vcGRmLzEuMy8nPgogICAgICAgIDxwZGY6QXV0aG9yPlBldGVyPC9wZGY6QXV0aG9yPgogICAgICAgIDwvcmRmOkRlc2NyaXB0aW9uPgoKICAgICAgICA8cmRmOkRlc2NyaXB0aW9uIHJkZjphYm91dD0nJwogICAgICAgIHhtbG5zOnhtcD0naHR0cDovL25zLmFkb2JlLmNvbS94YXAvMS4wLyc+CiAgICAgICAgPHhtcDpDcmVhdG9yVG9vbD5DYW52YTwveG1wOkNyZWF0b3JUb29sPgogICAgICAgIDwvcmRmOkRlc2NyaXB0aW9uPgogICAgICAgIAogICAgICAgIDwvcmRmOlJERj4KICAgICAgICA8L3g6eG1wbWV0YT6LQRPFAABB8klEQVR4nOzda6xlZ1kH8D9+KhRoHSXVRWkEmiD1ggrGxmyqBlM0XgCD4RKt6BottEhRpIV2pICK0tLpbei0HTZMoBEQjIKoqG0suiSa1DQKghdsI8oupFiHqaV89MO7x06UmXPmvGuvfc47v18yXyadZz+d0/S/13ovz6MCAOx4j1p3AwBAPYEOAA0Q6ADQAIEOAA0Q6ADQAIEOAA0Q6ADQAIEOAA0Q6ADQAIEOAA0Q6ADQAIEOAA0Q6ADQAIEOAA0Q6ADQAIEOAA0Q6ADQAIEOAA0Q6ADQAIEOAA0Q6ADQAIEOAA0Q6ADQAIEOAA0Q6ADQAIEOAA0Q6ADQAIEOAA0Q6ADQAIEOAA0Q6ADQAIEOAA0Q6ADQAIEOAA0Q6ADQAIEOAA0Q6ADQAIEOAA0Q6ADQAIEOAA0Q6ADQAIEOAA0Q6ADQAIEOAA0Q6ADQAIEOAA0Q6ADQAIEOAA0Q6ADQAIEOAA0Q6ADQAIEOAA0Q6ADQAIEOAA0Q6ADQAIEOAA0Q6ADQAIEOAA0Q6ADQAIEOAA0Q6ADQAIEOAA0Q6ADQAIEOAA0Q6ADQAIEOAA0Q6ADQAIEOAA0Q6ADQAIEOAA0Q6ADQAIEOAA0Q6ADQAIEOAA0Q6ADQAIEOAA0Q6ADQAIEOAA0Q6ADQAIEOAA0Q6ADQAIEOAA0Q6ADQAIEOAA0Q6ADQAIEOAA0Q6ADQAIEOAA0Q6ADQAIEOAA0Q6ADQAIEOAA0Q6ADQAIEOAA0Q6ADQAIEOAA0Q6ADQAIEOAA0Q6ADQAIEOAA0Q6ADQAIEOAA0Q6ADQAIEOAA0Q6ADQAIEOAA0Q6ADQAIEOAA0Q6ADQAIEOAA0Q6ADQAIEOAA0Q6ADQAIEOAA0Q6ADQAIEOAA0Q6ADQgK9ZdwPAanX98JSuH85Zdx/AanlCh0Z1/XBBktclefryt+5Jcu1iPtu3vq6AVRHo0JiuH3anBPlTj/GP3JfkbUn2L+azhydrDFgpgQ4N6PrhlCS7k1ya5Emb/GNfTHJdkhsW89mDq+oNmIZAhx2s64dTk1yU5DVJzthimS8l2Zdk72I+e2Cs3oBpCXTYgbp+OC3Jq5K8Osmukco+lOSWJFct5rMvjFQTmIhAhx2k64ddSX4lycVJHr/Cj9qf5LcW89lnV/gZwIgEOuwAXT+ckeSyJBcmecyEH30wyW8s5rPPTPiZwBYIdNjGun44K8nrk7x8za28P8mbF/PZp9bcB3AMAh22oa4fzk5yRZKXVZY6nLLh7VDKDvivr6z34SS/tpjP7qqsA4xMoMM2srzR7Q1JXlRZ6v6UI2k3HjmStjza9vMpwX5mZf3bk/z6Yj77WGUdYCQCHbaBrh++M8mVSZ5XWWqR5Ooktxzv0phNXD6zWX+VEuwfrawDVBLosEZdP5yb5E1Jzq8sdW+Sty7ms1tO8PNfmuTyJN9S+fl/m7J57vcq6wBbJNBhDbp+OD9ljfy8ylKfTvKbi/nsPZX9vGDZzzMr+/mHJG9ZzGe/XVkHOEECHSbU9cOPJ9mT5LsrS92dEpwfrO/qEV0/PDelv1llqX9NOcf+jvqugM0Q6DCBrh9elPJq+9srS3085dX2H9V3dWxdP5yX8sReuxTw7ylr+gcW89lXqhsDjkmgwwp1/fAzKefIn1ZZ6o6UIP/z+q42b8TNel9IsjfJ2xfz2UPVjQH/j0CHFej64cKUXeTfVFnqI0netO5z38vjdHuSvKSy1ANJbkhy/WI+O1TdGPC/BDqMpOuHR6dczfraJF1lud9JOQ72ierGRtT1w5NTXsX3laUeTHJTkmsW89n91Y0BAh1qdf3wuJRhKb+c5AmV5Q5mB9yd3vXDmSl3y+9OckpFqYeTHEjZQHffGL3ByUqgwxZ1/XB6kl9KGWN6emW5HTndrOuHJ6RMf7soyWMryx1IOYJ3b3VjcBIS6HCCRgyxh5LcnOTqnT5/fPnl5tUpX26+trLcbSnLDf9U3RicRAQ6bFLXD9+Y8pr5kspSh5Ncn+S6xXz2QHVjG+j64QeTnLaYz353gs86NckrU77w1A6C+UDKIJhttY8AtiuBDhtYbgS7PGW9uMZ/Jbkq5ejWg9WNbaDrhwtSdto/fflb9yS5djGf7Zvgs48MgrksyRMry/1hyhP7X1c3Bg0T6HAMXT88LeWo1k9Vlvpckrdlg4EpY9nE4JXFsp+bJ+qnX/ZzdmWpO1OC/Y7qpqBBAh3+j64fvi1lhOkLK0vdm7LR7db6ro5v+US8O2U06pM2+cfuT3Jtkn0TvTEYaxDM36QE+0fqu4J2CHRY6vrhWUnemORHKkuNMjBlM5Zr1q9I8pok37DFModSLnu5dorLXrp+eH7KWfZnVZb6u5Qjfh+o7wp2PoHOSa/rhx9ICZjnVJa6OyVgpth8dlrKjvJLknzdSGX/O+X43NVTXPayHARzRZJnV5b6x5QvUO+u7wp2LoHOSavrhx9OWSP/3spSkwxMSZKuH3alPI2/MsnjV/QxDyd5R0pIrvyyl64fnp3yc1jLTHhohUDnpNP1w0+kPBl+V2WpO1LWcu+sbmoDXT+ckbI+fmGSU1f9eUc5kPLvuPILb5aDYN6Q5PmVpSbd9AfbhUDnpDHipqw/SPLmKQamLK9YvTxlnXyd3pPyFmLll72MOAjm/iTXJblxik1/sG4CneZ1/XDkPPSxjnFt1ntTdq3/fX1Xx7c8+/6rSX62stThJPtSNr5dmh102UvXD09NOe5We/7/cJIbk+yd4iIfWBeBTrO6frg4JcTOqix1MBMNTBnx6fSLKU+nNxx5Oj3qspdLk5xZWX+ysa5HDYLpkzy6olQzV+3CVyPQacpIx7iO2J/kLYv57D+qG9vAiOvH96WsH+8/3vrxJi6f2azbU9bYP1ZZZ0NH3aH/iiSPqyj1lSTvTNn0t/KfLUxFoNOE5TGuX0wZEFJzjGvSp7iuH85NcmWSH6os9W8pO7z3n+Dnj7WvYEh5i/HRyjobGnkQzLtSvrRt63G1sBkCnR3tqGNcFyc5raLUoZS15msnHJhyRZLvryz1LylPmu+q7OcFy36eWdnPXSnB/vuVdTa0fBtzZA79GZXl3peyN+BT1Y3Bmgh0dqQRj3FNff3pj6askX9PZalPpDxZvq++q0csL3vZk2RWWeqTKcE+an9fzRavvT2WD6XsDbi7ujGYmEBnRxnxGNfnklyd5NaJBpS8MOUJ+DsqS92Vsmb9ofqujq3rh/NS+q297OWfU04GVL1B2KwRB8H8acoXkr+o7wqmIdDZEUY8xnVPylrzygemJEnXDz+d5PV5ZITpVv1lSsD8SX1Xm7fcrHdlkudVltrSGv9Wdf3wkpQvft9aWWotf++wFQKdbW3EY1yfTnlFfVt9Vxtbnn1/XZKnVJb6s5Qn8rU+KY74c5h6dOtYg2Am2xsAWyXQ2ZZGPMY15cCUMc95fzjJG7fbWu7yTcmeJD9XWWrqvQvnp/RdOwjmkylfDN9b3xWMS6CzrYx4jOvjKU+2f1zf1fGNvNv6/SnXym7r3dZHXfayO8kpFaUO5ZFb3KYY3Xpuyojc51aW+kzK6YJ3VjcFIxHobAvLY1x7knxfZanbU57I76xuagPLs++XLH/tqix3MBPdRjemoy57uSjJYytKTT26daw3QJ9NctViPnt7fVdQR6CzVl0//FjKGmftMa4pB6bsSgmxi1M/wvTmlCe9lU8zW6URL3uZenTrOSn//b20stTnk+xNctNiPnuoujHYAoHOWnT98JMp/yN9RmWpyV5RL8++X5Zy9v0xFaW+nOSWlF3fTd0pPvLyw4GUYL+3urENLPcGXJFyX3yNB5Jcn+T6xXz2perG4AQIdCbV9cMFKce4vrmy1MFMNzDlrJSeX15Z6sjks2tan/p11AbB16b+spfbUvZDTDG69cyUTY27UzcI5nCSm1L2Bqx8CQESgc5Eun74hZRjXE+uKDPpUI2uH85OeWp7WWWp/0x5arthXU9tXT+cuq5XwSNe9vLBlLcxU4xuHWsQzJdT3jS8dYolBE5uAp2VWT6lXZjylPbEilJTD0w5J+USmxdXlvp8kmtSJp+tbV2164dnJHnOYj7bu64eln2MNQhmytGtp6dsenxV6jc+3pryVmlH75dg+/ofAAAA///s3Xe4XEX5wPFv6AFDCX2IUgQF6Qr8QIfeBOkgSEeHXhSUSJdeFVSaAg5VqSJdenXoID2CgILAQOiEEnp+f8wJXC67Z07ds7v3/TzPfRKyszNDsrvvTntHArqoXLKOuithHXWWElV1+khTVVnRumrnszLuYEJAL5ufvRIVJnu5kTAVf0vpTkVUvDfgHEJgr30JQQwtEtBFZSrc6dzppCN9fTZZGfcIIQWq6qZp3+QimP0on+zldkJg78TVrVVeBNOxJQQxNEhAF6Up4+YhTEv+hHJnkSdemHKKt/r9KvqWRhm3KiGglD37/hghe9i55XtVLWXcnMAzyX/u5K3+Y4PdaUkZtywhB0HZi2DuJwT2jqRnrXBvwPWEWajav5CI/iYBXZSmjLsDWKZEFZ2+MGVtQgBZqmRV9xOmTi8p36t6KOP2Ao5K/vN6b3XZoFmbCpO9dDQ9a4UXwczrrX66gi6JIUoCuiitREAfQ5ii7tSFKVWdfe/YFG9Zyri7+eIXl+m81eOa6k8WFV4E8yTh9dWpq1vXIwT2JQtWIQFdlCIBXZRWIKD/kzCCqv3CFKj07HvH0spWQRk3GzB4zXxrb/XZTfQnrwqTvXT66tbVCP1eLudTJaCLUiSgi9JyBPTbCQGx9gtToLKz79DBY1JVUsbtBhw/6I8v9Vav30R/ihpwEYyhXLKXFwl7NDp1dWvezZYS0EUpEtBFaRkC+g2EKepbO9CXqYDtCWffy15hehFwaK/uQlbG3Qys0OKhqTsR0KpWYbKXVwmnKE7o0CmKxQl5DWJfpCSgi1IkoIvSIgH9LW/19B3oQ1Vn3wHOJgTynrr5bKDkApnX2jy8UaeWO+pQ4fHITuc5GAMskFJEArooZZKmOyBEGcq46ZRxBwLPEXZzlwnmpwBzequ37uVgnkgbDW7QsV7UwFv9prf6IMI58L2AotkDpyeMnJ9Txh2TzAAI0bMma7oDQhSRfPj+nJC9S3Jtf1la0F6rY72oUZJO9xhl3PGUuwjmK8lzd1PG/YmwYbOfXgtiiJApd1FaJ6fclXGzE0Zl21HuCtO3gZPow9uwlHEjCLd9pVmzU5sTO6nCZC8TA3tlV7fKlLuom4zQRU9IrjDdl3DZSxlD4b7qtTOU2QDou4DurbaATS6C2YfiyV62BbZVxnXs6lYhypI1dNHVlHHzKuPOJJwlLhPMxxJG9l/zVh/Sx8Ecsq2R99TRtby81ed6qxcm/H+WOW64BfC4Mu4iZdzC1fROiHpIQBddSRm3uDLuXEK2r61LVPUSsAcwl7f6mCavMe0EZdxwYM0MRWdUxuVNfNJzvNWXequXJMxauBJVbQQ8rIy7rMa/N1kCFaXIlLvoKsk58mvJn2VrsGcIa6Cnle5Ub1md7MlXNgBuq7EvXcNbfSVwZZLsZX/gBwWrWgdYRxn3ILC6t/rlqvooRFkyQhfdZirKBfMxwBbe6rmHYDCHfEfSNq6tF13KW32Xt3ot4NtAmVvZFgNmqqZXn5lQcX1iiJERuugXDxDSyvZUwhRl3GSArrDKPDeVza6M25qwP6EKD3urX6+orlp5qx8A1k8ugtkP2KzhLglRmgR00evuJOxC/nvTHSnCW/1xsoP/RMqdpy/qzIrq+W2vXFozkLd6DLC5Mm5/qrkIRojGyJS76FU3ASt5q7/bq8F8ouT2s4WBe5vuSwEvA6t4q3/edEfK8Fb/11u9LSExzQlAz+W6F0ICuug17wNLeqtX9lbf3HRnquKtftZbvRRwaNN9yeEa4Fve6hub7khVvNXPe6t/CswJ1H6Z0CCyy12UIgFd9JrxvXaNaR7e6l8B3wNeaLovKcYDO3mr1/BWt7sApqcl2QMf6nCzsilOlCIBXYgu462+A/gW8Lem+9LCI8Ci3uo/Nt0RIcQXyaY4IbqQt3ocsKEybktCzvkmNswNdqy3es+mOyGEaE1G6EJ0MW/1OTS/Ye4lYHkJ5kJ0NwnoQnS5ARvmDmmg+SuABbzVQyKjnBC9TAK6ED3CW30gsBTVJYJJ8x6wg7d6HW/1mx1oTwhRkgR0IXqIt/pewpWgdW6YewRYzFt9ao1tCCEqJpvihOgx3up3CBvmtiBsmJu2wuqP8VbvVWF9QogOkRG6ED3KW/1nqj8rfVjF9QkhOkQCuhA9Shk3G7BsxdWuVXF9QogOkYAuRO9av4Y6N6yhTiFEB0hAF6J31RF811TGDa+hXiFEzSSgC9GDlHEjgZVrqHo4sGYN9QohaiYBXYjetF6NdW9UY91CiJpIQBeiN9UZdNetsW4hRE0koAvRY5RxI4A1cjxlL8L0/NiM5Ycr49bO3TEhRKMkoAvRe7KOoJ8BlvBWH+OtvomQYe7mjM+VaXcheowEdCF6T5bd7RcCC3ur75/4B97qV73VKwGjMzy/jiNxQogaSUAXoockR8rSNsS9Cxhv9SZJitgv8Vb/BliCMIJvZ4Qy7vuFOyqE6DgJ6EL0lrS17ceARb3Vp8cqSUbuCxNG8u1IkhkheogEdCF6S7sge4K3eiFv9dNZK/JWv+Ot3gTYhjCyH2yDAv0TQjREAroQvWXwCP0NYC1v9U+LVuitPgtYlC9f9DJSGbdS0XqFEJ0lAV2IHqGMW4+QyW0iByzorb6qbN3e6qe91YsBvx/0kOx2F6JHSEAXoncMnG4/0Fu9rLf6xSob8FbvDqwOvJr80SZV1i+EqI8EdCF6x7rAi8Ay3upD6mrEW30d4cy6I0y7V31FqxCiBhLQhegByrg1gNsIU+x31d2et3qst3pZYH/kTLoQPWGypjsghMjkbm/11Z1u1Ft9uDJu+k63K4TIT0boQvQAb/XrDbb9ZlNtCyGyk4AuhBBC9AEJ6EIIIUQfkIAuqjChikqUcQpYvBNtCVGBhZRxX81RPvbaHVamM0LIpjhRhdQPqmRTlUp+RgGzJ7/OAcwGfDV5rHRbQlQo9lq7AEAZB+Gu+f8BLwEvJD8eeJ5w1PCFDPUJUYoEdFGYMm4WQnBO2wU9HSE9aVVkFCM6Jc9rbdbkp4xFlHEfeaufLVmPGKIkoIsvUcbNRRg5z578zNbi1zka6p4EdNGvLobPRvyvE0b2LxJG/S1/761+q5Geiq4kAX2IUMaNpH1wHvirnDkWonkjk58F0wop48YTCfrAi97ql2rtregKEtB7XLIpJxakv9ZYB4UQdRoOzJP8tJWM+lsF/VbBf3yN/RU1koDehZRx09E+OA/8/YxN9VEI0XNmS35ST5Io494iMuInBP7Gkh2J1iSgN0AZN5ywBt1uVD28/bMBeC35GYrGNd0BMWQ8BdzadCcaNIzPT6d8iTLuQ0KA94Rd/oNH+vJe7TDZYCSEEEL0AQnoQgghRB+QgC6EEEL0AQnoQgghRB+QgC6EEEL0AQnoQgghRB+QgC6EEEL0AQnoQgghRB+QgC6EEEL0AQnoQgghRB8Y0gFdGTcJxa8BnQC8B7zprf604f58CrwLvO2t/qSKvmSljBsGjMpQ9NUqL31I0ufOlFLkA2/1ywXqnQWYMqXIK97q9zPUU+Tf8mPgbeBdb/WEnM+tjTJuZmBRwiU/0xFSE78NvAm8ANxXdZpPZdy0SVvtvOOtfiNHfbMCU6QUedlb/UHW+jK0Nz0wIlLso6pvQVPGzQZMnvNpE4DxwDhv9UcV9iX2Hm3lQ+CtLO8x8WVDPZf7jMD/StYxQRk3FngAuAU4u8SbtGx/PlbGPQP8E7gWuMhb/XaJ+rJYjvD/HfM7YI8K210HOD/l8Q+Ucd/xVj+Ws95LgWVSHl8PuCxDPWX+LT9Vxj0HPA7cB1wJ3N3JIK+MWwrYlPD3nHqTF6G/TwKXA2d4q/9VQRd2Aw5LefxPwHY56rua9EtJvk94z1TlEmCFSJkPlXHKW13lvQw3AQsUfO4EZZwHHgNuBM7zVj9Xoi+x92hbyrgPgP8A/wJuB67wVj9Zoi9DwiRNd6APDCNcqLIGcDTwP2XcKcmNaZ02GTAvsDFggReUcUco475SY5tbZiy3STJq7ZQpgdM73GZVJgHmBFYH9gPuJLyu9lHGzVBnw8q45ZRxNwN3A7sTD+YQ+vtNYDQwRhl3nTJuoRq72dWUcaMIX3RjpgB+VHN38hhGmFVajfBZ9l9l3AXKuDkb6MuUhC8mGwDHAv9Wxt2njNtCGTfUB6Jt9eKHXbebHNgeeFgZN1/DfRkB7AM8pIxbrOrKlXFTAhtmLD474YOik5YC9uxwm3UZBRwBPK2M2zFZ6qiMMm6EMu4UwmzLCiWrWxV4QBl3ZI9+oSprS7J/tm5RZ0dKmpQwOHhMGbdZ050BvgOcAzyijFux6c50o6H4ZuuUrwE3JeuPTZsHuEUZl3oPcgHrAtPnKJ91NF+lg5Rx32yg3brMAPwBuK6q0boyTgH/IHwRreqLwmTA3sBlNc8QdaPNc5RdWhk3b209qcY0wJ+VcabpjiTmJ3y2/nqIfmFsS/4y6jUK+HXTnUhMB/y14g/XvKOLdZVx01TYfhbDAVv1iLYLrALcrYwruqkTAGXc7MAdhE1vdVgLuHiofPAmX5oXzPm0Jr7o5jUMOLmGQUEZewKXyhT854bEm6xhWyjj8u70rMs8wF5VVKSMm5GwxpvHNGSfoq/S94CfNtBu3eYDrk12VOeWfLm6irBeX6fVgN/U3Ea32KrAc7phOjuLKYDfN92JQdYGzuzDL+yFyDebdJ/S+g06FTA3YRfnwpE6JiWMUs6soD8TgFNa/Plw4OuE3dmTRurYRRl3SAXHUzYl/RhQO1sAZ5dsu4jDlXFXeKv/00Db7dw56L9HACMJmyyzftleEDgDWL9A+0eSvvO7nU/JPxjYXRn3F2/1/QXa6wnJLMQmBZ46rzLuu97qO6ruUwuXAS8O+rPJCZvhNBCbwVtWGbeEt/q+CvoyjrCjfqJhhCWlGcl33G1z4F6678tGx0lATzfBW/2Xdg8q4w4ADkx+0mTZKZzFp97qnVL68w3gYiBth/EMwMrANSX7kmedcKCVlHGze6sHf6jUbRrCUaeVOtxuO594q7/b6gFl3EjCxrRtCacnYtZTxm3qrT4va+PJsbRdMhZ/GDgLuA54FngHmIXwJfKHhNdCbK/IMMIovZ83M61G2PxZxJaEpY+6Heetvq3VA8nJnFMJG+HSbEQ4TlnW/d7qlu/HZGf9aoSZtSwnJg5Xxl3prX66gn71LJlyLyE5F3wwEHsRzdiB7uCt/jdhCiqWIGPJMu0km3iWTimSltxmUop/GShrRWVc2y9E3cJb/bq3+m/e6jUJywXPZ3jaYcq42OzMQAcTf/9/AOwILOatPs5b/ai3+m1v9QRv9Vhv9R3e6j0Ix4suz9DmCnWctugisbXwtPfFD5VxeRPCVMpb/RbhvTkmUnSJDvTlWW/1acAihM2asUQz0wAH1d2vbicBvaQkqP8zUqzu5C6f8VY/A7T8Bj7AV0s2E1snPDbyeJNHdY5WxpX9/++YZBr2O8BTkaLzkHEtNjkj/v1IsQ+ANb3Vp8QS2iSJUdYnJCOJ6ZX14lyS/QjrphR5hpBspp0ZCUtzjfJWfwycGynWsfdP8uXxNMKsYiyo/0gZN1f9vepeEtCrMXXk8bzZysqKZShLS22axaYpj30IHAU8klJm0QYTj4wgTL33jCSF7QaE9Jxpsu6WTvv3m2i0t/qmjPWRpD/eDNgm8nNz1jp7zIaEUWI7FxPPmtYtZ9KfjTxeZO9MKckX29jG1slobvavK8gaeknJWeBlU4p8QLUpJbOIZanLnAN7MGXcdwnZ6Nq5yVv9hjLuItI3DG4F/LJoP0paTRn3E2/16Q21n5u3+hFl3BnAzinFVlDGzZAhx3naSBLClOuJuTrIZ188zsr7vD4RC8YXAg8RZuva5XhfUxk3vbf6zUp7ll/s86Op/v2J+Jr6+sDhnelO95ERegnJmcyrgGlTip1R5JKQopJ1OB0pFlsjSxObbr8w+TU2Gtm05qMmsctCjk0SqvSS30Yenxz4v7QCSR6Cb0XqOaGbLofpdslZ/rTNlv/1Vt+TXP5yZUq5qSi2S75qq0QeryJXf27Ja/L4SLHFlHFTdaI/3UhG6OkmUcZd1+LPpyJkgvsa6Zm1HqOic985HEE49tTOBLKtdX5J8mVho5QiH5KsE3qrn1TGPUD7Y1GjCB+ChfqSwf3Aa7Tv7/SEI4Br19R+5bzVTynjniX93PgipJ9gWJh4Nrir8/ZtiNuc9OOiFw/4/QWkL3lsTuujqR2hjFuHcBw3TV3v2SxafR4PNCnhNX5vB/rSdSSgpxtGyEtdxB3ABjVcK7lUiz+eipBkZAviebhvLnG0Yy3Sd+zfMGi68ELSzzlvSb0fDjsT/j7anWldSxm3edrRxC50P+kBfa7I82NJZF7xVrdcQ00uHflD5PlZnOit7vQyVJ1i0+0XDPj91cBbtJ/W1sq4uZLNrXWYXxk3eHPZZIQv2D8gfKFIm7kdxxf/fzrKW/2sMu5V0s+pz40EdFGRRwnTQraqe9IHmJRwC1ZRnxIuaykqtunqwkH/fT4heUk7Gyjjdqzr7mNv9SvKuJ+Svmv398q46zu5LFLSq5HH05Z/IL4+mlb/tFSzEztt2rmnJJs709Lm/mdgEhZv9YfKuMtp/14aljx2aHW9/IKyo/9DvdXvVNKT4l4jPaDH3gN9S9bQqzfxOtVufFEd4a2+p8gTk/SiaUlOPiDcJf6ZZJSR9k15BMUynGWWJFu5NKXIjMDJdfahYrEjkLETF7H1xaY/rHtNbE/JxS3+LDbC7dad2jcDv2u6E5R/D/QtCejVWxA4hHB/b9Hp+jqc7K0+oMTzNyE9GNyQJKYYbPCofbBOXEyxI/B6yuMbKuN+2IF+VCE2wo4F5HdL1i8SyabO2BHAVsH7WtJfj99UxpVK/lSDiUuIHzfdEcq/B/qWBPT6zAxcqYzLe4FJ1V4Gfuytzprms50sx3JauYCwEa+dVeu+YtZbPRbYPVLsxOTCmW43S+TxVl+qBoodOYrVLz63MmHtuZ2nW+WuT4Ji2qwRFLvkpQ4fEFL2rtAFx+kmin1exN4DfUsCerpPCOtjrX5WJwSJtMs+pgD+ooxr4kNyDPBzYD5v9ZllKkryKn8vpciXptsn8lY/x5cvIRloMjqQPcxbfQ7pa7ezACfU3Y8KtNoUOVAso9yTkcen75L74zt9bK7IfpfYl9y/pjwWm3bfOGcq36q9Qrj6eX5v9egKLnOqhDJuAcIJlTSx13jfkk1xEd7qh9s89DBwnTLuZMKbs91a8IzAAcBuFXRnAiFpwjDgF6RPgT/orY6dW85qK9KPOv0DmDJlpH0t0PIiksQWdOampB0IRwnbfSBsShdP1yV5D9KOJEJ4XaYZA3xEOLPezurAEy3+/FniKWMhTImeT/x4XJr3Io/HbgUbLLanJde/e3LWeYNIsZtS3hMPExI8zdDm8VkIe1aq3kB4NiGT5CaEkzHtjAP291Z/WHH7ZcUuK/qQcnk2epoE9JK81R8lF36sQ/uzqFsp43b3VqddzpDFpxPXwZVxUwCjU8puqow7qaIrGWObdFYhTO0XtYQybn5v9eMl6ojyVntl3M+BtAxxeQNFJ8Uy670L3JVWIHm93k168qFdlXEnDj6l4a1+lwxZD5O/47RgnmU0HDvuOVeGOib2Z3IglkQo7zTtBrTP+DZR2aN5W1J9QLfe6tuUcXcSkmK183VgT0Jei66gjJuMePrXO7tknb8RMuVegWSNNm3qfVqK3Tud5nDC8Y12hgEnlM3GlmzO6cQUbCc2x+GtPoPOp+ItLdlgGdu4d723OpbvHeLrt/MR33PQUrIPYd9IsdjlQRC/wXDxHHseVgSGpzz+SYb2ButE3vW1lHG1nJbxVv+deA6Ifbssm+KviOdRSLsAp+9JQK9O7MKCSm8oSnaUHxYp9m3CndpldGpzzmY1p4IdaFviI8CukVw5ej7p2cgAbMYqzyV+xe5ReTd0JiPhC0hPPuS81a2m8wd7mPR19CkJI8hYn4YB+0WK/TtJy5pJsiemEydYpiY9M2NZo0mfLZmGsI7eOGXc1sD+kWLvEb8prq9JQK+AMm5+4t8cy063t3IS8U1QhynjCh1FSjblbFzkuQXMRfolN5XxVj9P+nJFV1DGTa6M2xm4HRgZKf6QtzrT9Ky3+kXgnEixyYErlHF7JFOdsb7OTkjLuXKk6FEZ+/gGIStemtHKuLYj5eT1ezKwXKSevKluN6Nzy5W1zQR4qx8gHgA3TS5kaoQybqQy7kTgTOJ7Mv7krX6l/l51L1lDL0kZ9w0gS+rQF6tuO1kP3Zf0s96zAAcBexRoYg06e4xpS7JNx5bmrT5VGbcRnRlpZZJstJqRcJvUCoS9C1lmdiaQYbQ6yMGEjVFp68CTA8cBuyjjTiUE7EcnrlEmI/LFCV/6to/UBXCttzpt3Xawi4ElUh6fFDgnCernEq7sfZfwd7h00qf5M7STd1TXycQvyyvjRiVfQuuwL+Hq13ZLEsOA45VxS3biwp5kiWFmwr/7yoQvT2nX0k70KkP4lrWJJKCnm0QZ1y516UhgHsIHb+zv8T3S7wcvzFt9kTLuLsIHWDu7KONO9VbnvSWpI+vaA2ykjNulgztrtyOk6m1iI9ykyrjBm3eKHlM6xVt9Q54neKufV8btRbYseV8Hjk5+JijjxgEfE3azZ/0MeYNwyiCPPxJSFcfWkVdPfoq4ttVZ8XaS2bi0LxlVm4QwSs80s5GXt/o5ZdzxpF8i9R3AEK4vrdIKg94Dwyg+a7xrD6Vvro1MuacbBuzd5md7wu7uLB9o19aVrzwRG51NTs6Ujcq4EcTzdu9CyIyX9WdZ0tdFpyd+V3dlkktIOn0b3kCTDvop4lbgZ0We6K3+A/Gp98GGEQL5jGQP5h8DW7W79KWdJJFJnaOu8eSf2YjtKRlDvvfEgsSvGq57A96RxO8IOLzo0l2KYXzx9V80Hh3lrW7swphuIiP0+n0MHFhnA97q25Vxl5CeF301Zdy63urLMlb7Q9JzIr8DnJ73i0pyXCZ2Jv2iPHWW9AfCxqMVO9hmVe4A1i05o2EIF13EzvcW9Qmwbdb1/RZ+Q/hiWcf+ij291Y/mfE4s1ev53upc56CVcWcAP0opsqAybjFv9YN56s3KW/2WMu5Q0nNBlFm6q9NJ3uoyF071FRmh1+8Ab3Ut0+2D7E1IGJLm2OT8ehaxUcEVBWcdYrndv9/JFKzJuuC2xHOcd5szgRXb5M/PLMkAtjZwWhWdGuRtYH1v9VlFK0jOwq9H9clCDvFW57qURxm3HPHz70VGijcSMrOlqfu0ycnEM6ztkmRq6wYfEKbZd226I91EAnp9PiEE81rWvgbzVv8bODVS7OuEDHOpknuvl48UKzrFdSHpR2WmIH20Ujlv9X+In53uFk8Da3qrf1zVXgNv9Sfe6u0Jm+TGVlEncAuwiLf6irIVeatfJyTCub5sXYRpduOtLjJrFguqDyTvw1yShFN/ixT7kTKuts/rZKNj7D2Qe+muJjcDi3mrT2q6I91GAno97ga0tzp2TrxqBxE/X71vcsQozRakvzbeIv9RH+CzI1P/iBRr4vrIE4j3qykTgHsImxTn91YX+ruP8VZfSNgV/iviI8Z2HgA29FavmFyfW1Xf3iBsfNueYidGPiUEzYW81WmZAltKZrY2jBSLzT6liX1Bnp2aT2R4q/9KWMZJs5oybp06+9HGh8BlwPLe6pXqzirZq2QNvZxPCNOKbwKPEwL5Jd7qh5rojLf6VWXc0aRvJPoKIVlE2pR6bLr98pKjwwtJnwFYRhk3r7c6dsa+Mt7qCco4AzxIc/cpf0qY+h9HyJv+L8J98ld6q1/oRAeSjWiHKuOOIQTQdQknKOajdf739wnT4TcBf/VW311j3yYApynjziTs8diQsPehXT70Twj/nlcDZyQzMUWtS/xSkNjmtjS3Er6opH3Z3pL6sxzuSTyoH6uMu6am0ygfEfbnvEmYjRoDOMLG4p5JBtWUTmXmEkL0sGSEOoqww31qwlHM14HnBud8b6BvowjLSdMRvnS8QwiOj3fh5SJC1EYCuhBCCNEHJKALIYQQfUACuhBCCNEHJKALIYQQfUACuhBCCNEHJKALIYQQfUACuhBCCNEHJKALIYQQfUACeo9Sxs0FKGCOlF+naap/XWKTJJ2pEAAo41YFrmu6Hw17H/DJzwvtfvVWj2+sh6IQSf3ao5I82c+klVHGTUt6wFfAV+vsZ8P2oVx+bdF/Ct0d30NepH2QnhioX2+ue6JOMkIXKONmJT7an6mxDpazvLf6tqY7IZqnjJuHkB+8F71Bi+A88NdO5fsX3UtG6AJv9VjCtZkPpJVLmeYf+Puv1NnXAn4BSEAXAHs03YEWJk5/t536Joyq32+sh6JnyAhdVEoZNx1fDPIDg/+KxG+sqsP83uonGmhXdAll3AjCdHQT+0ou54tB+vmkLzL9LSolI3RRKW/1W4T70v81+DFl3L6kX+0KYc17PDArMNuAnzJ+QbhHWwxd21M+mL9BmMkaC7yU/Lo9MFXKc87xVm9Vsl0hMpERuugYZdzMwMuRYqd6q3do8dxZCIF9FsKIf2DA/ybwnVjz3uoXc3da9AVl3IukfzF8AniIzwP1WMJI+jVgrLf6uRZ1/h9wV6Rp7a2+vVCnhchJArroKGXcBcDGkWLTeavH5ahzBGE6c0RKseO81b/IWqfoH8q4nYCTI8XmTk6O5Kk39lp+yls9X546hShjkqY7IIacP2Qos02eCr3VbwN/jBTbSRk3Q556Rd84IPL4JQWC+RzEv5hmea0LURkJ6KKjvNW3AE9Fiu1WoOrjI48PB3YvUK/oYcq4bYDZI8V+U6DqLOfZzypQrxCFSUAXTTgx8vi8yriV81TorX4e+HOk2G7J9LwYOvaNPH6ft/qOPBUq44YDO0aKXeCtfi1PvUKUJQFdNCHLyGWXAvXGRloz0J1nkUUNlHE/BmJr2EcUqPonpO/XADitQL1ClCIBXXSct/pN4PRIsfWVcbmOq3mrHwKuiBT7pTJuZJ56Rc86LPL4GG/1JQXqjW2u/J+3+sYC9QpRigR00ZTYJjYolnf74Mjj0xDfJCV6XJLzQEWKHVSg3vWAuSPFZDOcaIQEdNEIb/W9wH2RYrvk3Znurb4fuCZSbHdl3Kg89Yrekbxm9osUe8pbfVGB6mOJkcYDpxSoV4jSJKCLJh0SeXwExXa8H5qhTJG1U9EbDgWmjpTJPUujjFsH+FakmPVWv5G3biGqIAFdNMZbfQUwJlLsZ3l3pie7lq+PFNtSGRfLLid6jDJuAeIbKsd4q88vUP2BGcoUOQInRCUkoIumHRV5fCTxI0KtjM5QJss6vugtNkOZ2FG2L1HGrQ18O1LsXG/1s3nrFqIqEtBFo7zV5xBuoEozOjn7m6feh4DYGukSSVpQ0QeUcVsBy0SK/dNbfVmB6mObLQGOLFCvEJWRgC66QWyUPjOwbYF6f5WhzNHKuJkK1C26iDJueuC4DEVz78lQxq0FLB4pdrW3+tG8dQtRJQnoohv8iXA1ZZq981bqrX48qTvNCOC3eesWXecoYMZImavzZoVLZBmdH1OgXiEqJQFdNM5bPZ54UFXKuJ8WqP4A4J1ImS2UcasWqFt0AWXc0sCXrtxt4ecF6t6Q+Nr5PckdBUI0SgK66BYnEs7wpjlQGTdNnkq91S+RbRPUGcq4r+SpW3SNczKU+XUyY5NXll3rsSUjITpCArroCsnZ3WMjxUYCexao+wTgkUixOZAjRz1HGXc4MG+k2EtkO3I2uO6dgLkixYqmjxWichLQRTc5Cng9UmZ0wVzsP8lQZoe8t7yJ5ijjFiPb7MtuybJOnrqnIVtq2J3z1CtEnSSgi67hrX6X+M70aTKUaVX3fcDJGYqeLlPvPePsDGVu8Fb/tUDdewKzRMpc5a2+tUDdQtRCArroKt7qk4D/Ror9rGAu9l8AscQfX0N2LHc9ZdwBwMKRYu8CWxWoeyTZEhPtnrduIeokAV10o19mKBO7JONLvNXvA5tnKLqTMk7nrV90hjLuW8TvAQDY1Vv9YoEmDibMBKU5xVv9VIG6haiNBHTRdZIp0nsixbYqkovdW3078PsMRc+RqfeudVaGMld5q8/MW3GSC37XSLHxFNhkJ0TdJKCLbrVHhjJZ8na3sg/wdKTMXMDvCtYvapJMtS8RKfY2sF3BJk7NUOZIb/XYgvULURsJ6KIrJRm9Yjm3F1XG/axA3eOBTTMUNcq4LfLWL+qhjFuObFPtOxSZalfGbQPEllpe8VZnuZ5XiI6TgC662V4ZyhxVZIOct/pesp07P0cZF8vjLWqW/BtfmqHopd7q8wrUPz3w6wxFs2yWE6IREtBF1/JWPwHERkNTEc/X3q7+0cSn3gEuST7wRXMuA2aIlHmDbPkGWvkNELukx3mrs6zfC9EICeiiq3mrfwU8ESm2ujJu3YJNZJl6nxO4oGD9oiRl3O+J51MH+HGScTBv/csAJlJsPCDLL6KrSUAXveDHGcr8sciu9GTqff8MRVdTxu2Xt35RjjJuAyDLpTynFLznHOCMDGX29VbHchgI0SgJ6KLreavvJD6tPhtwdMH6DweuyVD0MGXcKkXaEPkp4+YnWza4B73VOxZsY3/gm5Fid3mr5cSD6HoS0EWvGA28GimzszJujYL1bwY8l6HceQWz1IkcklzqlxNP8PImsH7BNpYkvkcDYJsi9QvRaRLQRU/wVr8J7JKh6FnKuJkL1P8GsGGGojMB1ynjps3bhsjlUmC+DOV+6K1+Jm/lyReGLPsiDkw2ZwrR9SSgi57hrb4QuDZSbGbgzwXrv5d4ljCABQijR1EDZdyZQJaljaO81TcUbOa3wNyRMmO81VnOvQvRFSSgi16zHSETWJrVkrusc0suh8lyO9fyyrgsm6lEDsq4vYGtMxT9h7d6n4JtrEe2THJZ+iFE15CALnqKt/o5st1BfZwyLrbZqZ2tgSwXb2wjO9+ro4xbHzgyQ9GXgY0KtjEbcHqGoocmV+4K0TMkoIue463+M3BhpNhUwEUF638PWBd4L0Pxw5RxmxVpR3xOGbc08LeMxdf1Vr9csKkLiCeoeSTJfyBET5GALnrVDsALkTILK+OOKFK5t3oM2e/S/osybvki7QhQxn0D+HvG4jt7q+8q2M7uwHIZihYa/QvRtGFNd0CIopRxKwA3Zyi6TIkgsAdwXIai44AlvNVPFmlnqFLGzQTcR8jGF/Nrb/UvC7azEPBIhqK7JvsohOg5MkIXPctbfQtwbIaiFxU9Zuat/i3ZrlGdFrhJGTdPkXaGImXcSMIXsizB/LyiwTxxfoYy10kwF71MArroad7qPYEHIsVGAYUv1fBW70G29fhRgFPGzVu0raEiGZnfDCyUofhN3urC+xSUcacDC0aKvUb2JRYhupIEdNEPNiB+lG09ZVyh1LAA3uqNgdsyFJ0d+IcE9faSYO6ARTIUfxRYr0Rbe5LtLoBNvNVji7YjRDeQgC56XpIpLMuZ4V8q47J8uLezNvB4hnKzIUG9pQHBPMuRQg+s4q2OfVlr19ZaZLvj/Bhv9Y1F2hCim8imONE3lHGnAdtmKLqCt/rWgm3MAdwPzJqh+EvAst7qLGfa+17OYP4msHTRtKvKuCUIMyrDI0Uf9FYvXqQNIbqNjNBFP9kNyLLL/HJl3AJFGvBWvwCsStjVHiMj9YQyblayB3OA1UsE81HA1cSD+dsUvNhFiG4kAV30DW/1+8APiK+nTwtcW+QSl6SdR4DVMrQDnwf1olnrep4yTpE9mL8PfN9bfU/BtqYFriNcohOzZZGLXYToVhLQRV9JzoFvmqHoV8mezKRVO3cDK5N9pH63Mk4Xba9XKeMWAe4BssxSjAfW8FbHLuBJcznh8pyYg7zVl5VoR4iuIwFd9B1v9VXAARmKLqGMy3IRS7t27gWWB97IUHw6wkj9R0Xb6zXKuNWBO4E5MhQfT9gAd0uJ9k4n/HvEXO2tPrhoO0J0Kwnooi95qw8jW27wDZVxWS4EadfOg8CywKsZn3KeMu7Aou31CmXcdsA1wNQZir9DCOZ3lGhvNNmOpz0BbFy0HSG6mQR00c+2AsZkKLe3Mm6Hoo14qx8jjAxfy/iUg5Rxhe5s7wXKuN8Bp2Ys/jblg/mmwDEZio4DfuCtfqdoW0J0s/8HAAD//+3de9Bv1RzH8fefZJKk0hZyyXFLilGyi1IuyZBJkuiyDYqGiXSS7pIkuQw5M+0yRJdJU6fcIqW2ply6EEkiZEdpTheq8Zc/1u8xZx7lrH35Ped5vr/3689nfmt/13+fZ6+91nd5bE2hFVXzdOBa8o6Z7d3W5dkDai0DfpxZC9JGsd3auryvb83FpKiadUi3me2WOWQVsNNklaNvzV2Bb2f+fPu2Lpu+taTFzkBXeEXVbEH6lvu4jJ+/sa3LSwbUeibp/HPOd2OA3wG7tHX55741F4PJsbRLyev+BinMt5+sbvStuQPpH6gce7Z12es6XWmpcMld4U2OmeWeN764qJpdBtT6A/AK8jrKATwHuGHS1WxJKqpmR+AG8sP8DqAcGObbkn9K4TDDXLPAQNdMaOvyB8B+mT+/sKia7QbU+hOwLWlJPcf6pH8kctqULipF1RwH/Ih0NC/H9cCLJ/fN9635ItKGu5wVl7qty5zv69KS55K7ZkpRNUcAn8j46X3AK9u6vHFgvRo4oMOQnwF7LPYl+EmzmHNIO/xznQfsO2kA1Lfu5sDV5DWOuaity94Xu0hLjYGumVNUzelAlfHTe4Dt2rr83cB6HwW63PR2H/Cuti5XDqk7LUXVvAb4BnmhOueTbV0eMbDuU0kbHDfJ+PnVbV2+Ykg9aalxyV0zp63Ld5N3v/kGwOWTIBlS79Okm9py30zXAy4qqubUIXWnoaiaTwPfp1uY7zlCmG9C2gCXE+a/Bl43pJ60FPmGrplVVM2lpItW1uR24OVtXf5tYL2tSZeGbNRh2C9IgfiHIbWHKqrmaaQl8206DFtFOpbX+4z5pPYGpP0Iz834+R9Jt7TdNaSmtBT5hq5Ztjtpk9aabAZcU1TNs4YUa+vyOmBr8prdzHkJ8Muiat43pPYQk6Y7N9EtzH8PbD1CmG8K/IS8ML+LtO/BMNdM8g1dM23y9ncVeRd6rCJdHnLtwJrrACuAfToOvYz0bb0dUj/XZOPbmaSb5bq4gLT5bVBHtqJqtiQt7+c06rkX2GFyRFGaSQa6Zt7kGtUryXsLfBh4S1uX3x2h7r7Al8g7fjXnfuBDbV2eObT+/1NUTQV8lnTVbBcfaOvySyPU3xm4iLxe8IOb1EgRGOgSnUMd4KC2Lk8boe4y4FvACzoO/SGwT1uXfx86h3nz2Rg4C9i549DbgDeNEapF1bxjMocchrk0YaBLE5NQv5q8u7sBTmrrcvlItVcA7+k4bBXpjfibI81hX+BzwBM6Dj0P2L+tywdHmMPRwDGZPzfMpdUY6NJqiqp5MnAFsCxzyDltXb59pNp7AmfQbQke0uUkh/Q9L19UzXOAz9PvqNf+bV1+tU/dR5jHmeR38/ObuTSPgS7NU1TNRqQl7S0yh/yYdKnLAyPU3gy4ENiyx/AVwJFtXd6dWWtDUte8risDkO4Vf1Nbl7f0GDt/HuuQvpfnLvPfSbqlLbdfvjQTDHTpERRVsy7p8o8yc8hNwK5tXf5lpPrHAx/vMfRBUle6k9u6fOhRnv1Y4CPAcvI2nc33GdI/Dr1buK42l41JfdlfnDnkVlKY3zG0thSNgS79H0XVXEz+/d73ALu3dXnVSLWXkZbg+1wUcycpdOt5z9wfOJ78611X91PSEnvvi1XmzeVlwCXAhplDriddNXvPGPWlaAx0aQ16XLDy0bYuR7s5raia/UhvxRv0GH4zcCjpuN2p5H9GWN29wOFtXX6lx9hHVFTNwcAXOgz5IemfpUFn26XIDHQpQ1E1nwIO6zDkfGC/ti7/NVL9JwIn0u979xBnAR8eq/vaZLn/dGDvDsNG23goRWagS5mKqjkQ+HKHIbcAb2jr8rYR57AdaRk+dxd+X7cBB7R1eeVYD5z0g/8eeV355pzS1uVHxpqDFJmBLnVQVM0e5N3UNud+UgOYi0eex+HAUcBjxnzuxDFtXR475gOLqnkt6f70LmfcP9jWZZdleWmmeTmL1EFbl+eTNqnlHlF7PLBysmt9zHmcSLo0ZswWsOcAT5lCmB9NejPvEuZvNsylbnxDl3ooquaFpGNtXe5KvxR4W1uX905hLp8Hdur5iGuAg9u6/Pl4s/rv0b9zgF07DPsHqVf+KCcFpFlioEs9FVWzHnA28PoOw+4kbZa7dArz2Q04mfx+9H8m7V4fpXXsvLnsCHwN2LTDsJ+SmtUMundemlUGujTQ5Hv2JzsO+yapD/uqKczn/aR+6E96lJ/8E/gUacPZ4OYw82qvT1oteGfHoae2dXnImHORZo2BLo2gqJpXkjbL5TZJAbibtNR97hTmsy5wJOkM+urOAJbntoftWPOtwBfJu798zgOkTYMrx56PNGsMdGkkRdVsApwLbN9x6ErgvdNYap70hj8Z2Ii0a/yGKdTYGDgN2L3j0BuAPcY81ifNMgNdGllRNScAH+s47F5SA5czpjClqZm0kj0FWL/j0NPaujxoClOSZpaBLk1BUTU7k97Wn9hx6OXAuxb75SNF1WxK2vS2Y8eh/wTe2dblhePPSpptnkOXpqCty7nrV3/SceiOwC1F1XRpM7ugiqo5lNQjvmuYXwe8yDCXpsM3dGnKiqo5gnTveFe3Ah9q6/I7I0+pl8mxuM8Cm/cYflJbl8tHnpKk1Rjo0gIoqmYr4Bt062M+5zLgwLYubx13VnmKqtmctOnt1T2G3w7s1dbltaNOStL/MNClBVRUzSlA3/PWnwGOa+syt+3sIJOjb8fQf76nkTb6PTTapCQ9KgNdWmBF1byKdB78GT2G3wMc1tZlPeqk5imqpgJOot8d7HcA+0/2EUhaIAa6tJb0PN4250bS2fVRl7KLqtkGWAFs2fMRJwNHjd2BTtKaGejSWlRUzfNIb+vb9nzEStJ1p9cPnMcWwAnAG3s+4jrScbTfDJmHpP4MdGkRKKrmIFI/+PV6PuJ7pGDv9MZeVM1LSN/Jd+tZ9z7SJ4AVPcdLGomBLi0SRdVsSLrY5O0DHvMD0pL3NWuotRXpKF2Xq03nO5vUTnb0vvCSujPQpUWmqJqdgBrYbMBjLiftiL9i3rO3Ii2td7nydb7bgAPaurxywDMkjcxAlxapomqOBY4a+JirgONIveI/Abx2wLMeBk5s6/K4gXOSNAUGurSIFVXzNOBYYL+1PJXTSd/o/7qW5yHpURjo0hJQVM2zgeOBvRa49Fmkb/J/XOC6kjoy0KUlpKiaFwIn0n9Xeq7zgSPbuvztlOtIGomBLi1BI+1SfyQXkt7IfzXycyVNmYEuLWFF1byUdH59l4GPuoQU5IMa1Ehaewx0KYCiakpgOfCGjkMvIO1c//n4s5K0kAx0KZCiap4PHMqad8V/HTihrctbpj4pSQvCQJcCKqrmycDBwIHA+pM/P0g6fnZSW5ft2pqbpOkw0KXgiqpZBjwGuLmty3+v7flImg4DXZKkAAx0SZICMNAlSQrAQJckKQADXZKkAAx0SZICMNAlSQrAQJckKQADXZKkAAx0SZICMNAlSQrAQJckKQADXZKkAAx0SZICMNAlSQrAQJckKQADXZKkAAx0SZICMNAlSQrAQJckKQADXZKkAAx0SZICMNAlSQrAQJckKQADXZKkAAx0SZICMNAlSQrAQJckKQADXZKkAAx0SZICMNAlSQrAQJckKQADXZKkAAx0SZICMNAlSQrAQJckKQADXZKkAAx0SZICMNAlSQrAQJckKQADXZKkAAx0SZICMNAlSQrAQJckKQADXZKkAAx0SZICMNAlSQrAQJckKQADXZKkAAx0SZICMNAlSQrAQJckKQADXZKkAAx0SZICMNAlSQrAQJckKQADXZKkAAx0SZICMNAlSQrAQJckKQADXZKkAAx0SZICMNAlSQrAQJckKQADXZKkAAx0SZICMNAlSQrAQJckKQADXZKkAAx0SZICMNAlSQrAQJckKQADXZKkAAx0SZICMNAlSQrAQJckKQADXZKkAAx0SZICMNAlSQrAQJckKQADXZKkAAx0SZICMNAlSQrAQJckKQADXZKkAAx0SZICMNAlSQrAQJckKQADXZKkAAx0SZICMNAlSQrAQJckKQADXZKkAAx0SZICMNAlSQrAQJckKQADXZKkAAx0SZICMNAlSQrAQJckKQADXZKkAAx0SZICMNAlSQrAQJckKQADXZKkAAx0SZICMNAlSQrAQJckKQADXZKkAAx0SZICMNAlSQrAQJckKQADXZKkAAx0SZICMNAlSQrAQJckKQADXZKkAAx0SZIC+A/j0aXEp6c6WgAAAABJRU5ErkJggg==;" vertex="1" parent="1">
          <mxGeometry x="250" y="220" width="180" height="180" as="geometry" />
        </mxCell>
      </root>
    </mxGraphModel>
  </diagram>
</mxfile>
